<svg width="62" height="73" viewBox="0 0 62 73" fill="none" xmlns="http://www.w3.org/2000/svg">
<path d="M17.4737 19.2548C16.3496 18.8629 15.2232 18.4829 14.1015 18.0909C11.4586 17.1603 8.83972 16.2008 6.56999 14.467C6.22559 14.2049 5.9051 13.9019 5.57505 13.6205L5.40045 13.7239C5.74964 14.4934 6.01273 15.3207 6.46476 16.0228C7.60321 17.8 9.44721 18.3795 11.3893 18.6681C13.6327 18.9975 15.8928 19.238 18.1506 19.5314C17.9377 19.4424 17.6986 19.3366 17.4737 19.2548ZM25.9404 24.7232C22.8741 24.2072 19.7738 23.9218 16.6654 23.8695C14.0177 23.7974 11.3582 23.8984 8.71535 22.9918C9.35037 24.1357 10.393 24.995 11.6332 25.3966C13.0419 25.8775 14.4889 25.8246 15.9383 25.6851C18.0908 25.4831 20.2433 25.2258 22.3959 25.0214C23.5917 24.906 24.8187 24.8459 26.0121 24.7641C25.9978 24.7689 25.9715 24.728 25.9404 24.7232ZM26.7727 23.1289C22.6159 21.2556 18.1626 20.7482 13.7044 20.3754C11.5639 20.1999 9.45199 19.9426 7.48602 18.9879C7.39242 18.9628 7.29586 18.9507 7.19901 18.9518C8.12938 21.0584 9.82988 21.977 11.925 22.1381C13.8384 22.2872 15.7732 22.2511 17.6962 22.3185C20.9848 22.4339 24.259 22.6696 27.5189 23.4704L26.7727 23.1289ZM36.9302 29.0013C34.4835 27.3901 31.7522 26.6302 28.875 26.3801C25.4166 26.0795 21.9869 26.4282 18.5572 26.8995C16.5147 27.1809 14.453 27.3805 12.389 27.0823C11.8317 26.9981 11.284 26.8418 10.6502 26.7047C11.5663 28.4434 13.0132 29.2057 14.7927 29.475C16.706 29.766 18.5835 29.3524 20.461 29.0542C22.8527 28.6742 25.2276 28.162 27.6361 27.9721C30.8362 27.7316 34.0171 27.9913 37.0354 29.2634C37.1211 29.2932 37.2091 29.3157 37.2985 29.3307C37.2985 29.3091 37.3177 29.2874 37.3248 29.2658C37.1885 29.1768 37.0713 29.0975 36.9302 29.0013ZM39.1091 31.5335C34.9009 29.9951 30.3643 29.597 25.9547 30.3792C23.2449 30.8313 20.5399 31.3603 17.8229 31.6585C15.0123 31.977 12.1671 31.5818 9.54766 30.5091C8.91386 30.2493 8.32072 29.8886 7.65822 29.5472C8.1981 30.6384 8.96964 31.5972 9.91837 32.3559C13.0276 34.8977 16.6893 35.5109 20.5399 35.4148C23.575 35.3378 26.5 34.6236 29.3892 33.717C32.6395 32.6974 35.885 31.6513 39.4343 31.7018C39.3306 31.6369 39.2218 31.5806 39.1091 31.5335ZM46.5903 26.8755C46.3296 26.3945 46.1311 25.8631 45.9063 25.3533L45.9206 25.3677C45.6001 24.8026 45.2581 24.2495 44.9639 23.67C44.4067 22.583 43.8733 21.4792 43.328 20.3851C42.4455 18.6007 41.5797 16.8092 40.6828 15.0321C39.1298 11.9492 37.5728 8.86792 36.0118 5.78823H31.116C28.9635 10.1408 26.8349 14.4453 24.6991 18.7739C24.4599 18.6512 24.2614 18.5647 24.0748 18.454C21.444 16.9222 18.7916 15.4553 16.2301 13.8273C14.3383 12.6577 12.5385 11.3441 10.8464 9.89795C7.8926 7.30323 5.87401 4.08807 5.24499 0C5.15889 0.165928 5.10867 0.240475 5.07518 0.331855C4.32949 2.33819 4.01407 4.48036 4.1496 6.61787C4.25233 8.59025 5.01029 10.4709 6.30212 11.9588C7.97631 13.9283 10.2197 14.972 12.5732 15.8184C15.8402 16.9968 19.1216 18.1246 22.3791 19.2957C25.5457 20.4332 28.5449 21.9409 31.525 23.4896C34.505 25.0383 37.3942 26.7456 40.049 28.8257C40.7665 29.3884 41.4697 29.9656 42.223 30.5692L47.0447 27.2699C46.9299 27.1737 46.6907 27.0631 46.5903 26.8755ZM30.9031 22.7754C31.8192 20.866 32.6658 19.1033 33.5579 17.2445C34.4524 19.1683 35.2991 20.967 36.141 22.7754H30.9031ZM59.2735 32.7767L59.1826 32.8994C58.5631 32.8994 57.9413 32.8994 57.3218 32.8994C55.1191 32.9451 53.6314 34.1474 52.3327 35.8236C51.5435 36.8456 51.5028 37.6464 52.1055 38.7838C53.6936 41.7729 55.1382 44.8414 56.6378 47.8786C56.7359 48.071 56.822 48.2681 56.9559 48.5543C54.0141 48.5543 51.1728 48.5543 48.3314 48.5663C47.9033 48.5663 47.7909 48.3066 47.6546 48.0277C46.7744 46.2305 45.8975 44.4326 45.0237 42.6338C44.9591 42.5015 44.8539 42.2803 44.8013 42.1529C44.5956 41.6118 44.2919 41.4146 43.6054 41.5613C40.3169 42.2827 37.1479 41.7825 33.9932 40.4046C34.7986 39.8163 35.7189 39.4065 36.6934 39.2022C38.2488 38.8193 39.8889 39.0069 41.319 39.7313C43.2323 40.6571 45.2031 40.823 47.1571 39.8323C48.7811 39.0123 49.678 37.5622 50.3381 35.9438C50.7471 34.9458 51.0675 33.907 50.9551 32.8032C50.8738 32.0361 50.5127 31.4373 49.7593 31.1511C49.618 31.0867 49.4648 31.053 49.3097 31.0523C49.1546 31.0515 49.0011 31.0838 48.8593 31.1469C48.7174 31.2101 48.5905 31.3026 48.4867 31.4186C48.383 31.5345 48.3048 31.6712 48.2573 31.8197C48.0755 32.3006 48.3769 32.8657 48.9748 33.1375C49.0275 33.1659 49.0786 33.1972 49.1279 33.2312C48.9102 34.5563 48.4989 35.7851 47.6546 36.8384C47.1105 37.5175 46.3691 38.0088 45.5338 38.2438C44.6985 38.4787 43.8112 38.4456 42.9956 38.149C42.0389 37.7882 41.1037 37.2832 40.1112 37.0524C37.9778 36.5546 36.0118 37.2039 34.0865 38.1297C32.7801 38.7923 31.4198 39.3418 30.0206 39.7722C27.9374 40.3661 25.816 40.1112 23.7256 39.6207C23.6465 39.6079 23.5666 39.6007 23.4865 39.599V39.6279C23.0606 40.509 22.8447 41.4779 22.8559 42.4575C22.8671 43.4372 23.1051 44.4007 23.5511 45.2718L25.2611 48.5759H10.0906L10.2867 48.1792C11.7791 45.1949 13.2285 42.2947 14.7281 39.2816H14.685C9.46634 39.6784 4.59684 40.9769 0.110018 43.6077L0 43.4899C0.559657 42.6819 1.0667 41.8378 1.67419 41.0852C3.92478 38.3173 6.87374 36.5618 10.1456 35.3017C10.3267 35.2476 10.5218 35.2674 10.6885 35.357C14.0991 37.341 17.7966 37.9325 21.6903 37.7979C25.4604 37.6669 29.1777 36.8667 32.6706 35.434C35.4959 34.2718 38.4289 33.3946 41.4266 32.8152C43.3065 32.4617 44.7176 31.3171 46.1048 30.0954C47.7 28.6863 49.5656 28.1067 51.6798 28.5203C52.9881 28.7776 53.9663 29.564 54.8153 30.562C55.0172 30.7937 55.275 30.9693 55.5639 31.0718C56.7933 31.4662 58.013 31.8677 59.0439 32.6926C59.1161 32.7312 59.1934 32.7596 59.2735 32.7767Z" fill="url(#paint0_linear_3_138)"/>
<path d="M15.1419 72.8196H12.4058L12.3723 72.7499L8.64123 64.9801L6.64656 69.1091C6.38177 69.6606 6.24844 70.2666 6.25716 70.8789C6.26588 71.4913 6.4164 72.0932 6.69678 72.6369L6.79006 72.8196H2.13342L2.22431 72.6393L7.75391 61.4644L7.78979 61.3947H9.4879L9.52138 61.4644L15.0534 72.6393L15.1419 72.8196ZM21.0135 70.5303H26.0695L25.1607 72.7282H21.0135C20.2938 72.7426 19.5788 72.6083 18.9127 72.3336C18.2467 72.059 17.6438 71.6498 17.1413 71.1315C16.156 70.1455 15.6633 68.7957 15.6633 67.0819C15.6633 65.4787 16.156 64.1866 17.1413 63.2054C17.644 62.6875 18.247 62.2788 18.913 62.0046C19.579 61.7304 20.2939 61.5964 21.0135 61.6111H26.0695L25.1607 63.809H21.0135C20.6859 63.8086 20.3617 63.8753 20.0607 64.0051C19.7597 64.135 19.4882 64.3252 19.2628 64.5641C18.684 65.1477 18.3938 65.9869 18.3922 67.0819C18.3922 68.2907 18.6824 69.1876 19.2628 69.7728C19.4874 70.013 19.7587 70.2042 20.0598 70.3345C20.361 70.4648 20.6856 70.5314 21.0135 70.5303ZM32.0512 70.5303H37.0953L36.1864 72.7282H32.0488C31.3291 72.7426 30.6141 72.6083 29.948 72.3336C29.282 72.059 28.6791 71.6498 28.1766 71.1315C27.1912 70.1455 26.6986 68.7957 26.6986 67.0819C26.6986 65.4787 27.1912 64.1866 28.1766 63.2054C28.6793 62.6875 29.2823 62.2788 29.9483 62.0046C30.6143 61.7304 31.3292 61.5964 32.0488 61.6111H37.0953L36.1864 63.809H32.0488C31.7212 63.8086 31.397 63.8753 31.096 64.0051C30.795 64.135 30.5235 64.3252 30.2981 64.5641C29.7193 65.1477 29.4291 65.9869 29.4275 67.0819C29.4275 68.2907 29.7177 69.1876 30.2981 69.7728C30.5227 70.013 30.794 70.2042 31.0951 70.3345C31.3963 70.4648 31.7209 70.5314 32.0488 70.5303H32.0512ZM49.7282 67.1636C49.7282 69.0009 49.2355 70.4117 48.2502 71.396C47.7475 71.9139 47.1445 72.3226 46.4785 72.5968C45.8125 72.8711 45.0976 73.005 44.378 72.9904H43.0889C42.3679 73.0049 41.6516 72.8709 40.984 72.5968C40.3165 72.3226 39.7118 71.9139 39.2071 71.396C38.2297 70.4101 37.7402 68.9993 37.7386 67.1636C37.7386 65.4451 38.2313 64.0928 39.2167 63.1068C39.7187 62.5878 40.3215 62.1782 40.9876 61.9035C41.6538 61.6288 42.369 61.4949 43.0889 61.5101H44.378C45.0979 61.4946 45.8132 61.6284 46.4794 61.9031C47.1456 62.1778 47.7484 62.5876 48.2502 63.1068C49.2355 64.0976 49.7282 65.4531 49.7282 67.1733V67.1636ZM46.9897 67.1636C46.9897 65.9468 46.7027 65.0467 46.1287 64.4631C45.9033 64.2242 45.6318 64.034 45.3308 63.9041C45.0297 63.7743 44.7055 63.7076 44.378 63.708H43.0889C42.7613 63.7076 42.4371 63.7743 42.1361 63.9041C41.8351 64.034 41.5636 64.2242 41.3381 64.4631C40.7594 65.0467 40.47 65.9468 40.47 67.1636C40.47 68.4959 40.7594 69.4578 41.3381 70.0493C41.5629 70.2891 41.8343 70.4798 42.1355 70.6097C42.4367 70.7396 42.7612 70.8059 43.0889 70.8044H44.378C44.7057 70.8059 45.0302 70.7396 45.3314 70.6097C45.6325 70.4798 45.9039 70.2891 46.1287 70.0493C46.7027 69.4642 46.9897 68.5055 46.9897 67.1733V67.1636ZM62 72.7186H58.6899L55.7505 69.3063H53.6387L54.5451 67.1011H57.9365C58.0398 67.0974 58.1412 67.073 58.2349 67.0292C58.3285 66.9854 58.4125 66.9232 58.4818 66.8462C58.721 66.6057 58.8526 66.1392 58.8526 65.4587C58.8526 64.7781 58.7282 64.3068 58.4818 64.0639C58.4129 63.9865 58.329 63.924 58.2352 63.8802C58.1415 63.8364 58.0399 63.8122 57.9365 63.809H50.9073V61.6111H57.9365C58.433 61.6004 58.9265 61.6917 59.3867 61.8795C59.8468 62.0672 60.2641 62.3474 60.6128 62.7028C61.2586 63.3585 61.5823 64.2796 61.5839 65.4659C61.5855 66.6522 61.2618 67.5701 60.6128 68.2193C60.1525 68.6876 59.5736 69.0202 58.9387 69.1812L62 72.7186Z" fill="#F7F7F7"/>
<defs>
<linearGradient id="paint0_linear_3_138" x1="-0.655325" y1="6.32449" x2="49.9237" y2="55.4453" gradientUnits="userSpaceOnUse">
<stop stop-color="#FFD38C"/>
<stop offset="1" stop-color="#996D28"/>
</linearGradient>
</defs>
</svg>
